<svg width="69" height="66" viewBox="0 0 69 66" fill="none" xmlns="http://www.w3.org/2000/svg">
<path d="M67.5781 0.703125H15.1093C14.8068 0.703125 14.5167 0.823298 14.3028 1.03721C14.0889 1.25112 13.9687 1.54124 13.9687 1.84375V8.56545C13.3285 8.24455 12.6037 8.13259 11.8966 8.24534C11.1894 8.35809 10.5354 8.68987 10.0267 9.19394L6.80101 12.4196C2.7429 16.4871 0.463867 21.9982 0.463867 27.7439C0.463867 33.4896 2.7429 39.0007 6.80101 43.0682L22.9317 59.1989C26.996 63.2632 32.5083 65.5465 38.256 65.5465C44.0037 65.5465 49.5161 63.2632 53.5803 59.1989L56.8071 55.9733C57.4476 55.3308 57.8072 54.4606 57.8072 53.5534C57.8072 52.6462 57.4476 51.7761 56.8071 51.1336L47.1278 41.4554C46.81 41.1376 46.4328 40.8855 46.0176 40.7135C45.6024 40.5415 45.1574 40.4529 44.708 40.4529C44.2586 40.4529 43.8135 40.5415 43.3983 40.7135C42.9831 40.8855 42.6059 41.1376 42.2881 41.4554L39.0624 44.6822L37.4496 46.2951C35.9512 47.7906 33.9206 48.6306 31.8035 48.6306C29.6864 48.6306 27.6558 47.7906 26.1574 46.2951L19.7038 39.8425C19.2566 39.3914 18.8653 38.8882 18.538 38.3438H67.5781C67.8806 38.3438 68.1707 38.2236 68.3846 38.0097C68.5985 37.7958 68.7187 37.5056 68.7187 37.2031V1.84375C68.7187 1.54124 68.5985 1.25112 68.3846 1.03721C68.1707 0.823298 67.8806 0.703125 67.5781 0.703125ZM21.3177 26.9375L24.5446 23.7107C25.1861 23.069 25.5464 22.1988 25.5464 21.2914C25.5464 20.384 25.1861 19.5138 24.5446 18.8721L16.2499 10.5775V4.35313L34.1988 19.9557L17.3906 33.8497C17.4699 31.8548 18.2974 29.9629 19.7083 28.5503L21.3177 26.9375ZM42.0919 22.4891C41.8844 22.6695 41.6187 22.7688 41.3437 22.7688C41.0687 22.7688 40.803 22.6695 40.5954 22.4891L18.1593 2.98438H64.528L42.0919 22.4891ZM35.944 21.4682L39.0978 24.2114C39.7223 24.7496 40.5193 25.0457 41.3437 25.0457C42.1681 25.0457 42.9651 24.7496 43.5896 24.2114L46.7434 21.4739L64.406 36.0625H18.2894L35.944 21.4682ZM48.4908 19.95L66.4374 4.35313V34.7816L48.4908 19.95ZM11.6418 10.8022C11.7478 10.6962 11.8735 10.612 12.012 10.5546C12.1505 10.4972 12.2989 10.4677 12.4488 10.4677C12.5987 10.4677 12.7471 10.4972 12.8856 10.5546C13.0241 10.612 13.1499 10.6962 13.2558 10.8022L22.934 20.4804C23.1478 20.6943 23.268 20.9844 23.268 21.2868C23.268 21.5893 23.1478 21.8794 22.934 22.0933L20.5136 24.5137L9.22141 13.2215L11.6418 10.8022ZM43.901 43.0682C44.0069 42.9622 44.1327 42.878 44.2712 42.8206C44.4096 42.7632 44.5581 42.7337 44.708 42.7337C44.8579 42.7337 45.0063 42.7632 45.1448 42.8206C45.2832 42.878 45.409 42.9622 45.515 43.0682L55.1943 52.7464C55.3004 52.8524 55.3845 52.9782 55.4419 53.1166C55.4993 53.2551 55.5288 53.4035 55.5288 53.5534C55.5288 53.7033 55.4993 53.8517 55.4419 53.9902C55.3845 54.1287 55.3004 54.2545 55.1943 54.3604L52.7739 56.7797L41.4817 45.4875L43.901 43.0682ZM24.5446 47.9079C26.4712 49.8303 29.0818 50.91 31.8035 50.91C34.5252 50.91 37.1358 49.8303 39.0624 47.9079L39.8689 47.1015L51.1371 58.3697C47.4378 61.6491 42.627 63.3939 37.6855 63.2483C32.7441 63.1027 28.0443 61.0776 24.5446 57.5861L8.41385 41.4554C4.92258 37.9555 2.8977 33.2558 2.75209 28.3144C2.60648 23.3731 4.35111 18.5622 7.63024 14.8628L18.8985 26.1311L18.0921 26.9375C16.1696 28.8642 15.09 31.4747 15.09 34.1964C15.09 36.9181 16.1696 39.5287 18.0921 41.4554L24.5446 47.9079Z" fill="white"/>
</svg>
