<svg width="73" height="47" viewBox="0 0 73 47" fill="none" xmlns="http://www.w3.org/2000/svg">
<path d="M63.0908 6.81836H52.7539L53.1816 11.3096C57.2214 11.571 65.3721 11.7658 65.6572 10.4541C65.9424 9.14238 64.0651 7.48372 63.0908 6.81836Z" fill="url(#paint0_linear)"/>
<path d="M71.5029 26.0664H67.5107L66.7266 28.9893L68.5088 30.2725H71.7881L71.5029 26.0664Z" fill="url(#paint1_linear)"/>
<path d="M67.8897 19.9872L65.9993 12.4256C66.5161 12.3158 66.9039 11.8573 66.9039 11.3079V10.0888C66.9039 7.44166 64.7503 5.28816 62.1033 5.28816H53.4927V2.77337C53.4927 1.47077 52.4331 0.411133 51.1305 0.411133H7.23898C5.93638 0.411133 4.87674 1.47077 4.87674 2.77337V23.4999C4.87674 24.1311 5.38846 24.643 6.01979 24.643C6.65098 24.643 7.16284 24.1313 7.16284 23.4999V2.77337C7.16284 2.73131 7.19692 2.69723 7.23898 2.69723H51.1304C51.1724 2.69723 51.2065 2.73131 51.2065 2.77337V23.5002C51.2065 24.1314 51.7182 24.6433 52.3496 24.6433C52.9808 24.6433 53.4926 24.1316 53.4926 23.5002V22.2045H66.9761C66.9772 22.2045 66.9781 22.2048 66.9791 22.2048C66.9802 22.2048 66.9812 22.2046 66.9822 22.2046C68.6414 22.2058 70.0502 23.2948 70.5341 24.7954H66.9799C66.3487 24.7954 65.8369 25.3071 65.8369 25.9385V28.3768C65.8369 30.3517 67.4435 31.9582 69.4183 31.9582H70.7138V36.9874H67.725C66.7432 34.1525 64.0484 32.1105 60.8839 32.1105C57.7193 32.1105 55.0243 34.1525 54.0427 36.9874H53.4923V28.3767C53.4923 27.7455 52.9806 27.2336 52.3493 27.2336C51.7181 27.2336 51.2062 27.7453 51.2062 28.3767V36.9871H27.4915C26.5097 34.1522 23.8148 32.1102 20.6503 32.1102C17.4858 32.1102 14.7908 34.1522 13.8091 36.9871H7.23898C7.19692 36.9871 7.16284 36.953 7.16284 36.911V34.3963H12.1159C12.7471 34.3963 13.2589 33.8846 13.2589 33.2533C13.2589 32.6219 12.7472 32.1102 12.1159 32.1102H1.14305C0.511856 32.1102 0 32.6219 0 33.2533C0 33.8846 0.511713 34.3963 1.14305 34.3963H4.87688V36.911C4.87688 38.2136 5.93653 39.2732 7.23912 39.2732H13.4133C13.413 39.2986 13.4113 39.3238 13.4113 39.3493C13.4113 43.341 16.6588 46.5883 20.6503 46.5883C24.6418 46.5883 27.8893 43.341 27.8893 39.3493C27.8893 39.3237 27.8876 39.2986 27.8873 39.2732H53.6469C53.6466 39.2986 53.6449 39.3238 53.6449 39.3493C53.6449 43.341 56.8924 46.5883 60.8839 46.5883C64.8753 46.5883 68.1228 43.341 68.1228 39.3493C68.1228 39.3237 68.1211 39.2986 68.1208 39.2732H71.8568C72.488 39.2732 72.9999 38.7615 72.9999 38.1302V25.9382C73 22.9281 70.7791 20.4271 67.8897 19.9872ZM53.4927 7.57411H62.1033C63.4899 7.57411 64.618 8.70219 64.618 10.0888V10.1649H53.4927V7.57411ZM53.4927 19.9185V12.4509H63.6493L65.5162 19.9185H53.4927ZM20.6503 44.3027C17.9192 44.3027 15.6973 42.0809 15.6973 39.3496C15.6973 36.6184 17.9192 34.3966 20.6503 34.3966C23.3814 34.3966 25.6033 36.6184 25.6033 39.3496C25.6033 42.0809 23.3814 44.3027 20.6503 44.3027ZM60.8841 44.3027C58.1531 44.3027 55.9311 42.0809 55.9311 39.3496C55.9311 36.6184 58.1531 34.3966 60.8841 34.3966C63.6152 34.3966 65.8372 36.6184 65.8372 39.3496C65.8372 42.0809 63.6152 44.3027 60.8841 44.3027ZM70.714 29.6721H69.4186C68.7043 29.6721 68.1231 29.091 68.1231 28.3767V27.0812H70.7139L70.714 29.6721Z" fill="white"/>
<defs>
<linearGradient id="paint0_linear" x1="59.2201" y1="6.81836" x2="59.2201" y2="11.4997" gradientUnits="userSpaceOnUse">
<stop stop-color="#FF5B14"/>
<stop offset="1" stop-color="#FF7F47"/>
</linearGradient>
<linearGradient id="paint1_linear" x1="69.2573" y1="26.0664" x2="69.2573" y2="30.2725" gradientUnits="userSpaceOnUse">
<stop stop-color="#FF5B14"/>
<stop offset="1" stop-color="#FF7F47"/>
</linearGradient>
</defs>
</svg>
