<svg width="71" height="73" viewBox="0 0 71 73" fill="none" xmlns="http://www.w3.org/2000/svg">
<path d="M70.3032 16.5181C70.1683 16.2684 69.9399 16.0825 69.6678 16.0014L66.1104 14.9403L66.7497 12.8022C66.9308 12.2053 66.8668 11.5726 66.5695 11.0209C66.4526 10.8039 66.3046 10.6111 66.1328 10.445L67.3182 6.48274C67.9407 4.38898 66.7458 2.17931 64.6565 1.55781C63.6438 1.25469 62.5715 1.36533 61.6376 1.86977C60.7051 2.37364 60.026 3.20786 59.7259 4.21718L58.5403 8.17956C57.768 8.32457 57.0952 8.85282 56.7956 9.61661L47.6236 0.880563L47.463 0.727006C47.2711 0.54251 47.0907 0.371416 46.8823 0.240814C46.873 0.234398 46.8636 0.228125 46.8541 0.221994C46.8502 0.219713 46.8465 0.217289 46.8428 0.21515C46.7605 0.162967 46.671 0.121477 46.5755 0.0932461C46.4148 0.0357871 46.2354 0 46.0208 0H2.59325C1.47672 0 0.568359 0.907937 0.568359 2.0239V32.623C0.568359 33.2137 1.04714 33.6924 1.6377 33.6924C2.22825 33.6924 2.70703 33.2137 2.70703 32.623V2.13867H45.2014L45.1945 8.31373C45.1945 11.0244 47.3996 13.2297 50.1101 13.2297H55.7052L51.3085 27.9322C51.1393 28.4979 51.4608 29.0938 52.0267 29.263C52.5927 29.4328 53.1882 29.1107 53.3575 28.5449L58.153 12.5091C58.1619 12.4829 58.1698 12.4563 58.1769 12.4292L58.7794 10.4143C58.809 10.315 58.9259 10.2549 59.0275 10.2849L64.5721 11.9398C64.6343 11.9582 64.6688 12.0018 64.6866 12.035C64.7044 12.0681 64.7217 12.1204 64.7019 12.1857L63.7567 15.3465C63.756 15.349 63.7548 15.3512 63.7541 15.3537C63.7534 15.3561 63.7531 15.3585 63.7524 15.3608L52.0921 54.3565L50.1572 53.7793L46.1694 52.5897L51.9441 33.2814C52.1133 32.7155 51.7918 32.1197 51.2259 31.9505C50.6603 31.7811 50.0644 32.1027 49.8951 32.6685L43.8137 53.0019C43.8119 53.0081 43.8109 53.0145 43.809 53.021C43.8055 53.0336 43.8028 53.0465 43.7996 53.0593C43.7932 53.0863 43.7876 53.1133 43.7834 53.1404C43.7812 53.154 43.7792 53.1674 43.7775 53.1811C43.774 53.2107 43.7718 53.2404 43.7708 53.2702C43.7704 53.2809 43.7695 53.2913 43.7694 53.302C43.7691 53.3426 43.771 53.3831 43.7754 53.4236C43.7755 53.4249 43.7754 53.4262 43.7755 53.4274L44.3668 58.7031L44.7897 62.4378C44.3845 62.1722 44.0801 61.7097 43.7146 61.1134C43.2658 60.3811 42.6509 59.3785 41.4735 59.5997C40.4844 59.7904 40.0193 60.6169 39.5695 61.4161C39.3361 61.8307 39.0947 62.2596 38.7583 62.6865C38.5097 63.0027 38.3419 63.0925 38.288 63.0957C38.2449 63.0992 37.9963 63.0754 37.2953 62.3781C35.4614 60.5583 34.0349 61.7998 33.3493 62.396C33.0934 62.6189 32.8033 62.8711 32.6126 62.9055C32.4323 62.936 32.1038 62.7523 31.7302 62.4096C31.2948 62.0104 30.6186 62.0396 30.2193 62.4752C29.8203 62.9105 29.8495 63.5868 30.2848 63.9861C32.4735 65.9931 34.0132 64.6535 34.7532 64.0095C34.934 63.8522 35.2365 63.589 35.3402 63.5696C35.3416 63.5697 35.4866 63.5961 35.788 63.8951C36.4578 64.5618 37.274 65.2346 38.2803 65.2346C38.3258 65.2346 38.3717 65.2332 38.4179 65.2305C39.1571 65.1857 39.8374 64.7745 40.439 64.0096C40.8775 63.4533 41.1859 62.9053 41.4337 62.465C41.5225 62.3075 41.6284 62.1189 41.7257 61.9639C41.7828 62.0539 41.8407 62.1482 41.8918 62.2314C42.4923 63.2104 43.6016 65.0166 46.0675 64.8106C46.0717 64.8106 46.0763 64.8116 46.0806 64.8116C46.2394 64.8116 46.3806 64.7748 46.5045 64.7196C46.5227 64.7119 46.5401 64.7031 46.5578 64.6944C46.5614 64.6925 46.5651 64.6908 46.5686 64.689C46.6207 64.6626 46.6701 64.6325 46.7165 64.5984C46.868 64.4922 46.9812 64.3697 47.0548 64.2899C47.0671 64.2766 47.0789 64.2631 47.0905 64.2491L53.6332 56.37C53.6429 56.3583 53.6508 56.3453 53.66 56.3333C53.6717 56.3179 53.6831 56.3027 53.6941 56.2867C53.7166 56.2535 53.7369 56.2193 53.7554 56.1841C53.761 56.1734 53.7675 56.1635 53.7728 56.1527C53.7959 56.1051 53.8146 56.0559 53.8303 56.0057C53.8317 56.0013 53.8338 55.9976 53.8351 55.9931L56.8428 45.9344V70.8613H2.70703V37.5659C2.70703 36.9752 2.22825 36.4966 1.6377 36.4966C1.04714 36.4966 0.568359 36.9752 0.568359 37.5659V70.9721C0.568359 72.0902 1.47672 73 2.59325 73H56.9527C58.0715 73 58.9816 72.0902 58.9816 70.972V38.7817L65.4979 16.9893L68.0313 17.745L63.6858 32.2763C63.5166 32.842 63.8381 33.4379 64.404 33.6071C64.5062 33.6376 64.6093 33.6521 64.7108 33.6521C65.1712 33.6521 65.5962 33.3524 65.735 32.8888L70.387 17.3324C70.4681 17.0606 70.4381 16.7678 70.3032 16.5181ZM61.7754 4.82841C61.913 4.36574 62.2251 3.98321 62.6544 3.75137C63.085 3.51854 63.5782 3.46736 64.045 3.60694C65.0061 3.89295 65.5549 4.90954 65.2689 5.87137L64.1582 9.5841L60.6648 8.54143L61.7754 4.82841ZM47.3331 8.31487L47.3384 3.5616L55.2428 11.0909H50.11C48.5788 11.0909 47.3331 9.84502 47.3331 8.31487ZM46.8072 61.2424L46.0813 54.7951L50.9538 56.2486L46.8072 61.2424Z" fill="white"/>
<path d="M14.1035 28.8652C14.1035 29.4559 14.5823 29.9346 15.1729 29.9346H44.207C44.7976 29.9346 45.2764 29.4559 45.2764 28.8652C45.2764 28.2745 44.7976 27.7959 44.207 27.7959H15.1729C14.5823 27.7959 14.1035 28.2747 14.1035 28.8652Z" fill="white"/>
<path d="M15.1729 38.2471H42.4376C43.0282 38.2471 43.507 37.7684 43.507 37.1777C43.507 36.587 43.0282 36.1084 42.4376 36.1084H15.1729C14.5823 36.1084 14.1035 36.587 14.1035 37.1777C14.1035 37.7684 14.5823 38.2471 15.1729 38.2471Z" fill="white"/>
<path d="M15.1729 46.5591H40.3282C40.9188 46.5591 41.3975 46.0804 41.3975 45.4897C41.3975 44.899 40.9188 44.4204 40.3282 44.4204H15.1729C14.5823 44.4204 14.1035 44.899 14.1035 45.4897C14.1035 46.0804 14.5823 46.5591 15.1729 46.5591Z" fill="white"/>
<path d="M15.1729 54.8711H32.4006C32.9911 54.8711 33.4699 54.3925 33.4699 53.8018C33.4699 53.2111 32.9911 52.7324 32.4006 52.7324H15.1729C14.5823 52.7324 14.1035 53.2111 14.1035 53.8018C14.1035 54.3925 14.5823 54.8711 15.1729 54.8711Z" fill="white"/>
<path d="M40.8059 21.7155C41.7974 21.7155 42.6041 20.9092 42.6041 19.9181V15.6064C42.6041 14.6154 41.7974 13.8091 40.8059 13.8091H17.2742C16.2828 13.8091 15.4762 14.6154 15.4762 15.6064V19.918C15.4762 20.909 16.2828 21.7153 17.2742 21.7153H40.8059V21.7155ZM17.6149 15.9476H40.4656V19.5768H17.6149V15.9476Z" fill="white"/>
</svg>
